<svg
      xmlns="http://www.w3.org/2000/svg"
      viewBox="0 0 300 75"
      fill="none"
    >
      <g id="Page-1" stroke="none" strokeWidth="1" fill="none" fillRule="evenodd">
        <g id="Group" fill="#8B1719">
          <g id="Group-2">
            <polygon
              id="Rectangle"
              points="266 18 300 18 280.256537 66.1299246 300 66.1299246 300 75 266 75 285.783006 26.9661855 266 26.9661855"
            />
            <circle id="Oval" cx="208" cy="71" r="6" />
            <polygon
              id="Rectangle"
              points="167 18 177.094065 18 177.094065 66.3809371 194 66.3809371 194 75 167 75"
            />
            <polygon
              id="Rectangle"
              points="119 18 129.51627 18 141 38.5 153.027077 18 163 18 145.828583 50 145.828583 75 136.066907 75 136.066907 50"
            />
            <polygon
              id="Rectangle"
              points="75 18 85 18 85 38.5 101.939876 18 115.139988 18 93.5094229 43.9411536 115.139988 75 104.109243 75 85 49.9067062 84.9738862 75 75 75"
            />
            <polygon
              id="Rectangle-Copy"
              points="222 18 232 18 232 38.5 248.939876 18 262.139988 18 240.509423 43.9411536 262.139988 75 251.109243 75 232 49.9067062 231.973886 75 222 75"
            />
            <path
              id="Rectangle"
              d="M28.3507113,0 L39.054389,0 L66,75 L37.5580363,75 C28.1317098,70.6438109 23.7024979,65.2119201 24.2704006,58.7043275 C25.1222546,48.9429387 32.9617627,48.0023448 36.755516,48.5323328 C39.2846848,48.8856582 41.6848674,50.6749106 43.9560638,53.9000901 C36.0541957,53.0114979 32.1032617,55.1104441 32.1032617,60.1969287 C32.1032617,67.8266557 39.3372452,70.3689502 44.5181874,70.3689502 C49.6991296,70.3689502 55.6028068,65.0940937 55.6028068,58.953565 C55.6028068,52.8130363 52.3179916,46.219451 47.616291,43.0909596 C44.4818239,41.0052987 39.8195712,39.69301 33.6295327,39.1540934 C37.7211524,35.1233418 39.5294379,31.3825303 39.054389,27.9316587 C38.5793401,24.4807872 36.4277331,20.9431695 32.599568,17.3188056 C32.9073186,21.0718972 32.3035458,24.8718267 30.7882496,28.7185942 C28.5153053,34.4887455 21.7622109,38.9797143 17.1471115,45.3206951 C12.5320121,51.6616759 12.9666414,61.422852 15.4805634,65.3344309 C17.8655503,69.045391 21.3628116,72.2672473 25.9723473,75 L0,75 L28.3507113,0 Z"
            />
          </g>
        </g>
      </g>
    </svg>